<?xml version="1.0" encoding="UTF-8"?> <svg xmlns="http://www.w3.org/2000/svg" width="142" height="46" viewBox="0 0 142 46" fill="none"> <rect width="141.067" height="46" rx="4" fill="#000"></rect> <path d="M33.14 21.27c0-3.063 2.428-4.54 2.639-4.54-1.373-2.112-3.59-2.323-4.434-2.323-1.795-.211-3.59 1.056-4.54 1.056-.95 0-2.428-1.056-4.011-1.056-2.006 0-3.906 1.161-4.962 2.956-2.111 3.695-.528 9.079 1.478 12.035 1.056 1.478 2.217 3.061 3.8 3.061 1.479-.105 2.112-.95 3.907-.95 1.794 0 2.322.95 3.906.95 1.583 0 2.639-1.478 3.695-2.956 1.16-1.689 1.689-3.272 1.689-3.378 0 0-3.167-1.267-3.167-4.856zM30.185 12.403c.845-1.056 1.372-2.428 1.267-3.8-1.162 0-2.64.844-3.484 1.794-.739.845-1.478 2.323-1.267 3.695 1.267.106 2.534-.739 3.484-1.689zM51.403 28.87h-4.961l-1.162 3.589H43.17l4.75-13.09h2.218l4.75 13.09h-2.111l-1.373-3.59zm-4.434-1.584h4.012l-1.9-5.7h-.106l-2.006 5.7zM65.022 27.709c0 2.956-1.583 4.856-4.011 4.856-1.373 0-2.428-.633-3.062-1.69v4.752h-2.006V22.957h1.9v1.584c.528-1.056 1.69-1.69 3.062-1.69 2.428-.105 4.117 1.9 4.117 4.857zm-2.006 0c0-1.9-.95-3.167-2.533-3.167-1.478 0-2.534 1.267-2.534 3.167s1.056 3.167 2.534 3.167c1.478 0 2.534-1.267 2.534-3.167zM75.473 27.709c0 2.956-1.583 4.856-4.011 4.856-1.373 0-2.428-.633-2.956-1.69v4.752H66.5V22.957h1.9v1.584c.528-1.056 1.69-1.69 3.062-1.69 2.428-.105 4.011 1.9 4.011 4.857zm-2.005 0c0-1.9-.95-3.167-2.534-3.167-1.478 0-2.534 1.267-2.534 3.167s1.056 3.167 2.534 3.167c1.584 0 2.534-1.267 2.534-3.167zM82.443 28.765c.105 1.266 1.372 2.11 3.167 2.11 1.689 0 2.85-.844 2.85-2.005 0-1.056-.739-1.583-2.428-2.006l-1.689-.422c-2.428-.633-3.484-1.69-3.484-3.484 0-2.217 2.006-3.8 4.75-3.8 2.746 0 4.646 1.583 4.752 3.8h-2.006c-.106-1.267-1.162-2.111-2.745-2.111-1.584 0-2.745.844-2.745 2.006 0 .95.739 1.478 2.428 1.9l1.478.317c2.64.633 3.8 1.689 3.8 3.589 0 2.428-1.9 4.012-5.067 4.012-2.956 0-4.856-1.478-4.962-3.906h1.9zM94.686 20.637v2.217h1.9v1.584h-1.794v5.278c0 .845.316 1.162 1.161 1.162h.633v1.583c-.21.106-.633.106-1.055.106-1.9 0-2.64-.74-2.64-2.534v-5.49H91.52V22.96h1.372v-2.217h1.795v-.106zM97.644 27.709c0-2.956 1.795-4.857 4.54-4.857 2.744 0 4.539 1.9 4.539 4.857 0 3.061-1.795 4.856-4.539 4.856-2.85 0-4.54-1.9-4.54-4.856zm7.073 0c0-2.112-.95-3.273-2.533-3.273-1.584 0-2.534 1.161-2.534 3.273 0 2.111.95 3.272 2.534 3.272 1.583 0 2.533-1.266 2.533-3.272zM108.306 22.852h1.9v1.69c.317-1.056 1.161-1.69 2.322-1.69.317 0 .528 0 .634.106v1.795c-.106-.106-.528-.106-.845-.106-1.267 0-2.006.845-2.006 2.217v5.701h-2.005v-9.712zM122.241 29.61c-.211 1.688-2.006 2.955-4.118 2.955-2.744 0-4.539-1.9-4.539-4.856s1.689-4.962 4.434-4.962c2.639 0 4.328 1.795 4.328 4.75v.634h-6.756v.106c0 1.583 1.056 2.745 2.533 2.745 1.056 0 1.901-.528 2.217-1.373h1.901zm-6.651-2.851h4.75c0-1.478-.95-2.428-2.322-2.428s-2.323 1.055-2.428 2.428zM45.802 12.174h.9c.87 0 1.38.391 1.38 1.05v.01c0 .61-.536 1.01-1.353 1.01-.835 0-1.367-.33-1.437-.914l-.004-.035h-.963l.005.053c.066 1.046.997 1.757 2.399 1.757 1.358 0 2.36-.782 2.36-1.828v-.008c0-.853-.523-1.455-1.371-1.56v-.036c.703-.162 1.177-.751 1.177-1.454v-.009c0-.98-.87-1.657-2.144-1.657-1.327 0-2.193.655-2.259 1.727l-.004.062h.945l.004-.062c.075-.545.536-.865 1.283-.865.76 0 1.2.338 1.2.9v.01c0 .606-.488 1.023-1.244 1.023h-.874v.826zM51.482 15.084c.615 0 1.147-.317 1.415-.813h.022V15h.949v-3.186c0-.927-.716-1.525-1.846-1.525-1.138 0-1.828.61-1.894 1.406l-.004.049h.896l.01-.04c.078-.369.417-.628.966-.628.589 0 .923.307.923.817v.347l-1.261.075c-1.095.066-1.719.558-1.719 1.362v.009c0 .83.62 1.398 1.543 1.398zm-.585-1.42v-.009c0-.39.317-.641.888-.676l1.134-.07v.36c0 .602-.51 1.054-1.178 1.054-.51 0-.844-.255-.844-.659zM58.133 11.133v-.756H55.07V15h.95v-3.867h2.113zM59.128 16.538h.95v-2.316h.021c.273.536.805.87 1.46.87 1.16 0 1.92-.927 1.92-2.4v-.004c0-1.476-.756-2.399-1.934-2.399-.659 0-1.169.334-1.446.883h-.021v-.795h-.95v6.161zm2.171-2.263c-.716 0-1.226-.624-1.226-1.582v-.005c0-.962.505-1.586 1.226-1.586.747 0 1.213.602 1.213 1.586v.005c0 .976-.466 1.582-1.213 1.582zM64.918 16.543c.905 0 1.389-.37 1.732-1.328l1.722-4.838H67.37l-1.164 3.762h-.031l-1.165-3.762h-1.028l1.683 4.627-.079.22c-.158.448-.404.567-.852.567-.128 0-.238-.018-.312-.035v.742c.114.022.312.044.496.044zM70.844 15.092c1.134 0 1.886-.575 1.886-1.437v-.008c0-.541-.335-.91-.945-1.033v-.035c.496-.115.817-.506.817-1.002v-.01c0-.79-.65-1.278-1.714-1.278-1.041 0-1.723.492-1.832 1.314l-.005.035h.906l.004-.03c.07-.352.417-.568.914-.568.501 0 .8.233.8.629v.009c0 .413-.286.624-.844.624h-.663v.69h.667c.642 0 .95.21.95.654v.01c0 .421-.36.68-.945.68-.523 0-.866-.202-.971-.575l-.013-.044h-.932l.004.04c.093.817.835 1.335 1.916 1.335zM73.764 15h.937l2.122-3.248h.04V15h.944v-4.623h-.936l-2.122 3.234h-.044v-3.234h-.94V15zM82.543 10.377h-3.846v.756h1.446V15h.954v-3.867h1.446v-.756zM85.322 15.092c1.12 0 1.837-.668 1.982-1.402l.013-.048h-.905l-.013.035c-.119.347-.492.638-1.055.638-.756 0-1.235-.51-1.252-1.385h3.274v-.32c0-1.39-.796-2.32-2.092-2.32-1.297 0-2.132.966-2.132 2.412v.004c0 1.459.822 2.386 2.18 2.386zm-.044-4.025c.62 0 1.072.391 1.147 1.19h-2.32c.088-.773.558-1.19 1.173-1.19zM90.411 15h2.127c1.002 0 1.626-.519 1.626-1.327v-.009c0-.567-.395-.98-.993-1.059v-.035c.444-.084.786-.519.786-.998v-.008c0-.734-.544-1.187-1.445-1.187h-2.1V15zm.94-2.716V11.08h.963c.457 0 .703.207.703.589v.009c0 .408-.264.606-.8.606h-.865zm0 2.013v-1.323h.901c.624 0 .937.207.937.65v.01c0 .439-.29.663-.827.663h-1.01z" fill="#fff"></path> </svg> 