<svg width="82" height="80" viewBox="0 0 82 80" fill="none" xmlns="http://www.w3.org/2000/svg">
<path fill-rule="evenodd" clip-rule="evenodd" d="M81.3083 40.3785C81.3083 44.0836 80.7576 47.7164 79.7094 51.1917C74.9278 67.5065 59.957 79.5165 42.0883 79.9857L42.0095 80L42.0095 79.9877C41.6746 79.9959 41.3387 80 41.0018 80C18.7412 80 0.695312 62.0914 0.695312 40C0.695312 17.9086 18.7412 0 41.0018 0C41.1786 0 41.3552 0.00112959 41.5314 0.00338191L41.5317 0H81.3083V40.3785ZM42.0257 26.1251L43.5205 10H71.2291V40.2839C71.2291 51.1033 65.4133 61.1004 55.9713 66.5101C53.0166 68.2037 49.8462 69.3671 46.5958 70L42.8806 51.2322C44.0781 50.9984 45.2463 50.5702 46.3351 49.9462C49.8134 47.9533 51.9562 44.2697 51.9562 40.2839C51.9562 36.2981 49.8134 32.6145 46.3351 30.6216C44.905 29.8019 43.3386 29.3195 41.7475 29.1741L42.0312 26.128L42.0257 26.1251Z" fill="url(#paint0_linear)"/>
<defs>
<linearGradient id="paint0_linear" x1="5.56568" y1="75.794" x2="77.9854" y2="5.78986" gradientUnits="userSpaceOnUse">
<stop stop-color="#FF7E5F"/>
<stop offset="1" stop-color="#FEB47B"/>
</linearGradient>
</defs>
</svg>
