<?xml version="1.0" encoding="UTF-8"?> <svg xmlns="http://www.w3.org/2000/svg" width="142" height="46" viewBox="0 0 142 46" fill="none"> <rect width="141.067" height="46" rx="4" fill="#000"></rect> <path d="M69.497 24.494c-2.466 0-4.418 1.85-4.418 4.418a4.385 4.385 0 004.418 4.418c2.466 0 4.418-1.85 4.418-4.418 0-2.671-1.952-4.418-4.418-4.418zm0 6.986c-1.335 0-2.466-1.13-2.466-2.67 0-1.542 1.13-2.672 2.466-2.672 1.336 0 2.466 1.027 2.466 2.671 0 1.541-1.13 2.671-2.466 2.671zm-9.555-6.986c-2.466 0-4.418 1.85-4.418 4.418a4.385 4.385 0 004.418 4.418c2.466 0 4.418-1.85 4.418-4.418 0-2.671-1.952-4.418-4.418-4.418zm0 6.986c-1.335 0-2.466-1.13-2.466-2.67 0-1.542 1.13-2.672 2.466-2.672 1.336 0 2.466 1.027 2.466 2.671 0 1.541-1.13 2.671-2.466 2.671zm-11.404-5.65v1.849h4.418c-.103 1.027-.514 1.85-1.028 2.363-.616.616-1.643 1.336-3.39 1.336-2.774 0-4.83-2.158-4.83-4.932 0-2.774 2.159-4.932 4.83-4.932 1.438 0 2.568.617 3.39 1.336l1.336-1.336c-1.13-1.027-2.569-1.849-4.623-1.849-3.7 0-6.884 3.082-6.884 6.781s3.185 6.781 6.884 6.781c2.054 0 3.493-.616 4.726-1.952 1.233-1.233 1.644-2.98 1.644-4.315 0-.411 0-.822-.103-1.13h-6.37zm46.542 1.438c-.41-1.027-1.438-2.774-3.698-2.774s-4.11 1.747-4.11 4.418c0 2.466 1.85 4.418 4.315 4.418 1.952 0 3.185-1.233 3.596-1.952l-1.439-1.028c-.513.72-1.13 1.233-2.157 1.233-1.028 0-1.644-.41-2.158-1.335l5.857-2.466-.206-.514zm-5.959 1.438c0-1.643 1.336-2.568 2.26-2.568.72 0 1.439.41 1.644.924l-3.904 1.644zm-4.726 4.213h1.952V20.076h-1.952v12.843zm-3.185-7.5c-.514-.514-1.336-1.028-2.363-1.028-2.158 0-4.213 1.952-4.213 4.418s1.953 4.315 4.213 4.315c1.027 0 1.85-.513 2.26-1.027h.103v.616c0 1.644-.925 2.569-2.363 2.569-1.13 0-1.952-.822-2.158-1.541l-1.644.719c.514 1.13 1.747 2.569 3.905 2.569 2.26 0 4.11-1.336 4.11-4.521v-7.809h-1.85v.72zm-2.158 6.061c-1.335 0-2.466-1.13-2.466-2.67 0-1.542 1.13-2.672 2.466-2.672 1.336 0 2.363 1.13 2.363 2.671s-1.027 2.671-2.363 2.671zm25.07-11.404h-4.624v12.843h1.952v-4.83h2.672c2.157 0 4.212-1.54 4.212-4.006s-2.055-4.007-4.212-4.007zm0 6.165h-2.775v-4.418h2.775c1.438 0 2.26 1.232 2.26 2.157 0 1.13-.822 2.26-2.26 2.26zm11.918-1.85c-1.439 0-2.877.617-3.391 1.952l1.747.72c.411-.72 1.027-.925 1.746-.925 1.028 0 1.953.616 2.055 1.644v.102c-.308-.205-1.13-.513-1.952-.513-1.849 0-3.699 1.027-3.699 2.877 0 1.746 1.542 2.876 3.185 2.876 1.336 0 1.953-.616 2.466-1.233h.103v1.028h1.849v-4.932c-.205-2.26-1.952-3.596-4.109-3.596zm-.309 7.09c-.616 0-1.541-.309-1.541-1.13 0-1.028 1.13-1.336 2.055-1.336.822 0 1.233.205 1.747.41-.103 1.233-1.13 2.055-2.261 2.055zm10.891-6.782l-2.157 5.548h-.103l-2.261-5.548h-2.054l3.39 7.809-1.952 4.315h1.952l5.24-12.124h-2.055zm-17.261 8.22h1.952V20.076h-1.952v12.843zM48.024 14.144v2.072h-.856V15h-3.936v1.216h-.856v-2.072h.64c.213-.299.37-.728.472-1.288.101-.565.152-1.179.152-1.84V9.272h3.752v4.872h.632zm-1.528 0v-4.016h-1.968v1.04c0 .597-.048 1.152-.144 1.664-.09.512-.23.95-.416 1.312h2.528zM51.856 15.128c-.554 0-1.058-.13-1.512-.392a2.914 2.914 0 01-1.072-1.088 3.05 3.05 0 01-.384-1.512c0-.55.128-1.05.384-1.504a2.926 2.926 0 012.584-1.488c.555 0 1.056.133 1.504.4.454.267.811.63 1.072 1.088.262.453.392.955.392 1.504a3 3 0 01-.392 1.512c-.256.459-.61.821-1.064 1.088a2.972 2.972 0 01-1.512.392zm0-.856c.379 0 .726-.09 1.04-.272.315-.181.563-.432.744-.752.182-.325.272-.696.272-1.112a2.2 2.2 0 00-.272-1.104 1.96 1.96 0 00-.744-.76 2.046 2.046 0 00-1.04-.272c-.378 0-.725.09-1.04.272a2.018 2.018 0 00-.752.76 2.2 2.2 0 00-.272 1.104c0 .416.091.787.272 1.112a2.034 2.034 0 001.792 1.024zM58.674 15.128c-.555 0-1.061-.13-1.52-.392a2.84 2.84 0 01-1.08-1.08 3.016 3.016 0 01-.392-1.52c0-.555.13-1.061.392-1.52a2.84 2.84 0 011.08-1.08 3.017 3.017 0 011.52-.392c.432 0 .824.08 1.176.24.357.16.672.392.944.696l-.64.616a1.925 1.925 0 00-.656-.52 1.853 1.853 0 00-.824-.176c-.384 0-.736.088-1.056.264a1.96 1.96 0 00-.752.752c-.187.32-.28.693-.28 1.12 0 .427.093.803.28 1.128.187.32.437.568.752.744.32.176.672.264 1.056.264.64 0 1.184-.267 1.632-.8l.648.624c-.277.325-.61.579-1 .76-.39.181-.816.272-1.28.272zM63.314 10.128h-1.6v-.856h4.096v.856h-1.6V15h-.896v-4.872zM67.494 15.128c-.198 0-.365-.035-.504-.104v-.872c.176.096.336.144.48.144a.644.644 0 00.344-.08c.085-.059.163-.165.232-.32l.2-.416-1.904-4.208h1l1.336 3.176h.048l1.344-3.176h1l-2.192 4.816c-.16.357-.355.621-.584.792a1.31 1.31 0 01-.8.248zM72.047 9.272h4.264V15h-.896v-4.872h-2.472V15h-.896V9.272zM77.817 9.272h.896v2.376h2.656V9.272h.888V15h-.888v-2.504h-2.656V15h-.896V9.272zM86.369 15.128c-.555 0-1.059-.13-1.512-.392a2.914 2.914 0 01-1.072-1.088 3.05 3.05 0 01-.384-1.512c0-.55.128-1.05.384-1.504a2.926 2.926 0 012.584-1.488c.555 0 1.056.133 1.504.4.453.267.81.63 1.072 1.088.261.453.392.955.392 1.504a3 3 0 01-.392 1.512c-.256.459-.61.821-1.064 1.088a2.972 2.972 0 01-1.512.392zm0-.856c.379 0 .725-.09 1.04-.272.314-.181.563-.432.744-.752.181-.325.272-.696.272-1.112a2.2 2.2 0 00-.272-1.104 1.96 1.96 0 00-.744-.76 2.046 2.046 0 00-1.04-.272c-.379 0-.725.09-1.04.272a2.018 2.018 0 00-.752.76 2.2 2.2 0 00-.272 1.104c0 .416.09.787.272 1.112a2.034 2.034 0 001.792 1.024zM92.636 9.272h2.152c.304 0 .584.067.84.2.261.133.469.317.624.552.154.235.232.493.232.776 0 .283-.072.528-.216.736a1.319 1.319 0 01-.552.472v.048c.288.101.52.27.696.504.181.235.272.51.272.824 0 .315-.083.595-.248.84a1.64 1.64 0 01-.656.576c-.272.133-.571.2-.896.2h-2.248V9.272zm2.112 2.4c.256 0 .461-.08.616-.24.16-.16.24-.344.24-.552a.745.745 0 00-.232-.544.772.772 0 00-.592-.24h-1.248v1.576h1.216zm.136 2.496c.272 0 .488-.085.648-.256a.826.826 0 00.248-.592.796.796 0 00-.256-.592c-.166-.17-.39-.256-.672-.256h-1.32v1.696h1.352z" fill="#fff"></path> <path d="M10.215 9.8c-.308.308-.514.822-.514 1.439v22.706c0 .616.206 1.13.514 1.438l.103.103 12.74-12.74v-.206L10.215 9.8z" fill="url(#logo-googleplay-ru_svg__paint0_linear)"></path> <path d="M27.27 27.061l-4.212-4.315v-.205l4.212-4.213.103.103 5.034 2.877c1.439.822 1.439 2.157 0 2.98L27.27 27.06z" fill="url(#logo-googleplay-ru_svg__paint1_linear)"></path> <path d="M27.376 26.958l-4.315-4.315-12.843 12.842c.514.514 1.233.514 2.157.103l15-8.63z" fill="url(#logo-googleplay-ru_svg__paint2_linear)"></path> <path d="M27.376 18.328l-15-8.528c-.925-.514-1.644-.411-2.158 0L23.06 22.643l4.315-4.315z" fill="url(#logo-googleplay-ru_svg__paint3_linear)"></path> <defs> <linearGradient id="logo-googleplay-ru_svg__paint0_linear" x1="21.907" y1="11.043" x2="4.664" y2="28.286" gradientUnits="userSpaceOnUse"> <stop stop-color="#00A0FF"></stop> <stop offset=".007" stop-color="#00A1FF"></stop> <stop offset=".26" stop-color="#00BEFF"></stop> <stop offset=".512" stop-color="#00D2FF"></stop> <stop offset=".76" stop-color="#00DFFF"></stop> <stop offset="1" stop-color="#00E3FF"></stop> </linearGradient> <linearGradient id="logo-googleplay-ru_svg__paint1_linear" x1="34.272" y1="22.645" x2="9.411" y2="22.645" gradientUnits="userSpaceOnUse"> <stop stop-color="#FFE000"></stop> <stop offset=".409" stop-color="#FFBD00"></stop> <stop offset=".775" stop-color="orange"></stop> <stop offset="1" stop-color="#FF9C00"></stop> </linearGradient> <linearGradient id="logo-googleplay-ru_svg__paint2_linear" x1="25.02" y1="25.002" x2="1.638" y2="48.384" gradientUnits="userSpaceOnUse"> <stop stop-color="#FF3A44"></stop> <stop offset="1" stop-color="#C31162"></stop> </linearGradient> <linearGradient id="logo-googleplay-ru_svg__paint3_linear" x1="7.01" y1="2.275" x2="17.451" y2="12.716" gradientUnits="userSpaceOnUse"> <stop stop-color="#32A071"></stop> <stop offset=".069" stop-color="#2DA771"></stop> <stop offset=".476" stop-color="#15CF74"></stop> <stop offset=".801" stop-color="#06E775"></stop> <stop offset="1" stop-color="#00F076"></stop> </linearGradient> </defs> </svg> 