<?xml version="1.0" encoding="UTF-8"?> <svg xmlns="http://www.w3.org/2000/svg" width="87" height="32" viewBox="0 0 87 32" fill="none"> <path fill-rule="evenodd" clip-rule="evenodd" d="M39.125 9.73608C36.9234 8.47973 34.212 8.47973 32.0102 9.73608C29.8097 10.9935 28.4541 13.3146 28.4541 15.8295C28.4541 18.3433 29.8097 20.6643 32.0102 21.9219C34.212 23.1781 36.9234 23.1781 39.125 21.9219C41.3266 20.6643 42.6824 18.3433 42.6824 15.8295C42.6824 13.3146 41.3266 10.9935 39.125 9.73608ZM51.5751 15.8296C51.5751 21.4843 48.5253 26.7092 43.5719 29.5376C38.6184 32.365 32.5166 32.365 27.5644 29.5376C22.6109 26.7092 19.5601 21.4843 19.5601 15.8296C19.5601 10.1749 22.6109 4.94897 27.5644 2.12051C32.5166 -0.706836 38.6184 -0.706836 43.5719 2.12051C48.5253 4.94897 51.5751 10.1749 51.5751 15.8296Z" fill="#FF7A2F"></path> <path fill-rule="evenodd" clip-rule="evenodd" d="M74.3581 9.73608C72.1563 8.47973 69.4438 8.47973 67.2422 9.73608C65.0428 10.9935 63.6859 13.3146 63.6859 15.8295C63.6859 18.3433 65.0428 20.6643 67.2422 21.9219C69.4438 23.1781 72.1563 23.1781 74.3581 21.9219C76.5597 20.6643 77.9153 18.3433 77.9153 15.8295C77.9153 13.3146 76.5597 10.9935 74.3581 9.73608ZM86.8082 15.8296C86.8082 21.4843 83.7573 26.7092 78.805 29.5376C73.8515 32.365 67.7497 32.365 62.7962 29.5376C57.844 26.7092 54.7919 21.4843 54.7919 15.8296C54.7919 10.1749 57.844 4.94897 62.7962 2.12051C67.7497 -0.706836 73.8515 -0.706836 78.805 2.12051C83.7573 4.94897 86.8082 10.1749 86.8082 15.8296Z" fill="#FF7A2F"></path> <path fill-rule="evenodd" clip-rule="evenodd" d="M0.962246 0.00608691L0.151571 8.60497L0.155016 8.60609L0 10.2307C0.863494 10.3079 1.7132 10.5655 2.48944 11.0021C4.37834 12.0658 5.54038 14.0285 5.54038 16.1547C5.54038 18.2797 4.37834 20.2437 2.48944 21.3062C1.89808 21.6388 1.26539 21.8671 0.61547 21.9926L2.63183 32C4.39556 31.6618 6.11566 31.0426 7.71979 30.1391C12.8445 27.2549 15.9999 21.9231 15.9999 16.1547V0.00608691H0.962246Z" fill="#FF7A2F"></path> </svg> 